<mxfile host="app.diagrams.net" agent="Mozilla/5.0 (Windows NT 10.0; Win64; x64) AppleWebKit/537.36 (KHTML, like Gecko) Chrome/131.0.0.0 Safari/537.36 Edg/131.0.0.0" version="24.7.17">
  <diagram name="หน้า-1" id="ezzTpFvLNp011kuZ5QTB">
    <mxGraphModel dx="1042" dy="531" grid="1" gridSize="10" guides="1" tooltips="1" connect="1" arrows="1" fold="1" page="1" pageScale="1" pageWidth="827" pageHeight="1169" math="0" shadow="0">
      <root>
        <mxCell id="0" />
        <mxCell id="1" parent="0" />
        <mxCell id="kgGYIZARkkqLd7lrrh0F-1" value="&lt;font style=&quot;font-size: 17px;&quot;&gt;Stock&lt;/font&gt;" style="swimlane;fontStyle=1;align=center;verticalAlign=top;childLayout=stackLayout;horizontal=1;startSize=26;horizontalStack=0;resizeParent=1;resizeParentMax=0;resizeLast=0;collapsible=1;marginBottom=0;whiteSpace=wrap;html=1;" vertex="1" parent="1">
          <mxGeometry x="120" y="120" width="500" height="400" as="geometry" />
        </mxCell>
        <mxCell id="kgGYIZARkkqLd7lrrh0F-2" value="&lt;font style=&quot;font-size: 21px;&quot;&gt;-symbol: String&lt;/font&gt;&lt;div&gt;&lt;div style=&quot;font-size: 21px;&quot;&gt;&lt;font style=&quot;font-size: 21px;&quot;&gt;-name: String&lt;/font&gt;&lt;/div&gt;&lt;div style=&quot;font-size: 21px;&quot;&gt;&lt;font style=&quot;font-size: 21px;&quot;&gt;-previousClosingPrice: double&lt;/font&gt;&lt;/div&gt;&lt;div style=&quot;font-size: 21px;&quot;&gt;&lt;font style=&quot;font-size: 21px;&quot;&gt;-currentPrice: double&lt;/font&gt;&lt;/div&gt;&lt;/div&gt;" style="text;strokeColor=none;fillColor=none;align=left;verticalAlign=top;spacingLeft=4;spacingRight=4;overflow=hidden;rotatable=0;points=[[0,0.5],[1,0.5]];portConstraint=eastwest;whiteSpace=wrap;html=1;" vertex="1" parent="kgGYIZARkkqLd7lrrh0F-1">
          <mxGeometry y="26" width="500" height="124" as="geometry" />
        </mxCell>
        <mxCell id="kgGYIZARkkqLd7lrrh0F-3" value="" style="line;strokeWidth=1;fillColor=none;align=left;verticalAlign=middle;spacingTop=-1;spacingLeft=3;spacingRight=3;rotatable=0;labelPosition=right;points=[];portConstraint=eastwest;strokeColor=inherit;" vertex="1" parent="kgGYIZARkkqLd7lrrh0F-1">
          <mxGeometry y="150" width="500" height="8" as="geometry" />
        </mxCell>
        <mxCell id="kgGYIZARkkqLd7lrrh0F-4" value="&lt;font style=&quot;font-size: 21px;&quot;&gt;+Stock(x: String)&lt;/font&gt;&lt;div style=&quot;font-size: 21px;&quot;&gt;&lt;font style=&quot;font-size: 21px;&quot;&gt;+Stock(y: String)&lt;/font&gt;&lt;/div&gt;&lt;div style=&quot;font-size: 21px;&quot;&gt;+setperviousClosingPrice(x: double): void&lt;/div&gt;&lt;div style=&quot;font-size: 21px;&quot;&gt;+setcurrentPrice(y: double): void&lt;/div&gt;&lt;div style=&quot;font-size: 21px;&quot;&gt;+getperviousClosingPrice(): double&lt;/div&gt;&lt;div style=&quot;font-size: 21px;&quot;&gt;+getcurrenPrice(): double&lt;/div&gt;&lt;div style=&quot;font-size: 21px;&quot;&gt;+getChangePercent(): double&lt;/div&gt;" style="text;strokeColor=none;fillColor=none;align=left;verticalAlign=top;spacingLeft=4;spacingRight=4;overflow=hidden;rotatable=0;points=[[0,0.5],[1,0.5]];portConstraint=eastwest;whiteSpace=wrap;html=1;" vertex="1" parent="kgGYIZARkkqLd7lrrh0F-1">
          <mxGeometry y="158" width="500" height="242" as="geometry" />
        </mxCell>
      </root>
    </mxGraphModel>
  </diagram>
</mxfile>
